<svg version="1.1" id="Camada_1" xmlns="http://www.w3.org/2000/svg" x="0" y="0" viewBox="0 0 2000 567.4" style="enable-background:new 0 0 2000 567.4" xml:space="preserve"><style>.st0{fill-rule:evenodd;clip-rule:evenodd}.st0,.st2{fill:#1f305f}</style><path class="st0" d="M2449.8 14.2c-13.1.4-9.3 6.3-37.7 13.4-28.7 7.1-63.4 2.7-94.2 15.7-80.7 33.8-93.8 164.6-189.9 215.2-63 35.6-127.3 43.8-184.8 61.8-46.1 18.5-74.8 30.8-108.6 59.9-26.2 22.6-32.6 44.6-60.1 73-27.8 37.8-133.3 4.2-160.4 51.7 14.3 9.3 22.6 11.8 47.7 8.5-5.2 9.8-38.2 22.8-32.2 37.3 0 0 79.9 14.6 147.3-26.1 31.4-12.8 60.9-39.8 109.7-46.3 63.2-8.4 134.5 13.3 210.9 19.4-15.8 31.2-32.1 49.7-49.5 75.4-5.4 5.8 4.6 11 23.2 7.4 33.3-8.3 57.5-17.2 81.5-33.8 31.3-21.6 44.7-41.3 71.1-72.6 22.9 36.8 103.7 44.8 120.3 13.1-30.8-13.1-37.4-81.1-26.9-110.4 12.5-28 21.5-67.5 31.6-104.3 9.1-33.1 14.7-83.6 25.6-109.5 13-32.1 38.2-42.2 57.1-59.2 18.9-17.1 37.8-31.3 37.2-70.3-.4-12.7-7-19.7-18.9-19.3z" transform="translate(-1614 -14.18)"/><path d="M1637.8 544c49.5 1.5 63 .2 102.1-16.8 33.3-14.5 77.8-53.4 117.2-66 57.8-18.5 119.7-15.8 181.1-8.5 20.6 2.5 41.2 5.9 56 4.3 23-14.1 24.1-52.5 38.4-55.5-3.9 74.2-35.7 121.7-67.5 164.7 67-11.8 111.8-53.7 138.9-105.5 8.2-15.7 21.9-41.4 28.1-59.1 4.9 11.7-6.4 19.2-1.1 32 43.1-35.6 63.5-76.2 81-135.5 20.3-68.7 41.1-127.8 54.1-148.1 12.7-19.8 32.6-32.1 50.7-44.8 20.6-14.5 39-29.5 42.1-57-21.7-2-26.7-7-29.9-18-10.9 6.1-20.9 7.4-32.1 7.8-9.8.3-20.6-.1-33.7 1.2-108.7 11.1-113.8 117.4-192.8 195.5-5.1 4.9-13.8 12.3-19.6 16.6-24.4 18.2-50.5 28.2-78.1 38.7-44.6 17-86.9 22-128.7 36.7-30.7 10.8-59.2 23.1-84.5 40.4-6.3 4.3-14.8 12-20.3 16.5-14.8 12.1-24.5 25.5-33.9 39.4-9.7 14.2-19 28.9-33.3 42.9-23.1 22.7-109.4 6.6-139.8 27.7-3.4 2.4-6.1 5.1-7.9 8.5 16.6 7.5 27.7 2.9 46.7 5 2.4 17.8-39.4 28.6-33.2 36.9z" style="fill:#c0765a" transform="translate(-1614 -14.18)"/><path class="st0" d="M2329.7 84c15.4 13.4 47.7 2.6 41.9-23.9-24-2.1-37.8 6-41.9 23.9z" transform="translate(-1614 -14.18)"/><path class="st2" d="M2435.4 52.9c-4.1 8.6-11.9 19.7-11.9 41.5 0 3.7-2.8 6.3-2.9.5.2-21.4 5.9-30.6 11.9-42.7 2.7-4.9 4.4-2.9 2.9.7zM2430.6 49.7c-4.9 8.2-16.5 23.1-18.4 44.9-.3 3.7-3.4 6.1-2.9.3 2.1-21.2 11.4-34.5 18.4-46.1 3.2-4.8 4.7-2.6 2.9.9zM2425.8 45.4c-5.5 7.7-23.4 25.7-27.1 47.2-.7 3.7-3.9 5.7-2.9 0 3.9-21 19.3-37.5 27.3-48.4 3.4-4.4 4.8-2.1 2.7 1.2z" transform="translate(-1614 -14.18)"/><path class="st2" d="M2425.8 40.6c-6.5 6.9-27.9 29.8-34.6 50.6-1.2 3.6-4.7 5.1-2.9-.4 6.8-20.3 25.5-42.1 34.9-51.7 4.1-4 5.1-1.5 2.6 1.5z" transform="translate(-1614 -14.18)"/><path class="st2" d="M1646 236.2v150h-18.9v-25.7c-17.2 20.5-36.7 30.8-58.8 30.8s-40.7-7.8-55.9-23.4c-15.1-15.8-22.6-34.5-22.6-56.2 0-21.9 7.6-40.5 22.9-55.9 15.2-15.6 33.5-23.4 54.8-23.4 24.5 0 44.3 10.5 59.6 31.4v-27.4l18.9-.2m-17.8 75.7c0-17.2-5.8-31.6-17.2-43.2-11.5-11.9-25.6-17.8-42.4-17.8-16.6 0-30.6 6.1-42.1 18.4-11.5 12.1-17.2 26.4-17.2 43s5.9 31 17.5 43.2c11.7 12.1 25.6 18.1 41.8 18.1 16.4 0 30.4-5.9 42.1-17.5 11.7-11.8 17.5-26.5 17.5-44.2M1684.2 386.2V183.4h42.1c28.8 0 49.9 2.2 63.3 6.5 13.5 4.1 25.2 10.8 35 20 9.8 9 17.3 20.1 22.6 33.3 5.3 13.2 7.9 28.6 7.9 46.3 0 17.5-4.1 34.1-12.4 49.7-8.1 15.4-19.2 27.1-33.3 35-13.9 7.9-34.1 11.9-60.4 11.9l-64.8.1zm19.5-19.2h23.4c24.5 0 42.2-1.2 53.1-3.7 11.1-2.5 20.8-7.3 29.1-14.4 8.3-7.4 14.6-16.2 18.9-26.6 4.3-10.4 6.5-22.2 6.5-35.6 0-13.4-2.5-25.7-7.6-37-4.9-11.3-12-20.6-21.2-28s-20.1-12.3-32.8-14.7c-12.4-2.6-30.8-3.9-55.1-3.9h-14.4V367zM1432.4 194.4c0-4.3 1.5-8.1 4.5-11.3 3.2-3.2 7-4.8 11.3-4.8 4.5 0 8.3 1.6 11.3 4.8 3.2 3 4.8 6.8 4.8 11.3 0 4.3-1.6 8.1-4.8 11.3-3 3-6.8 4.5-11.3 4.5-4.3 0-8.1-1.6-11.3-4.8-3-3.2-4.5-6.9-4.5-11m6.2 41.8h19.5v150h-19.5v-150zM904.8 386.2l28.8-202.8h3.1l82.4 166.3 81.9-166.4h3.1l29.1 202.8h-20L1093.5 241l-71.7 145.2h-5.1l-72.6-146.3-19.8 146.3h-19.5M1309.1 236.2v150h-18.9v-25.7c-17.2 20.5-36.7 30.8-58.8 30.8-22.1 0-40.7-7.8-55.9-23.4-15.1-15.8-22.6-34.5-22.6-56.2 0-21.9 7.6-40.5 22.9-55.9 15.2-15.6 33.5-23.4 54.8-23.4 24.5 0 44.3 10.5 59.6 31.4v-27.4l18.9-.2m-17.7 75.7c0-17.2-5.8-31.6-17.2-43.2-11.5-11.9-25.6-17.8-42.4-17.8-16.6 0-30.6 6.1-42.1 18.4-11.5 12.1-17.2 26.4-17.2 43s5.8 31 17.5 43.2c11.7 12.1 25.6 18.1 41.8 18.1 16.4 0 30.4-5.9 42.1-17.5 11.6-11.8 17.5-26.5 17.5-44.2M1342 236.2h19.8V258c5.3-8.8 10.4-15.3 15.2-19.5 5.1-4.1 10.6-6.2 16.7-6.2 6.2 0 12.4 1.7 18.6 5.1l-10.2 16.4c-2.8-1.7-5.8-2.5-8.7-2.5-5.8 0-11.4 3-16.7 9-5.1 6-8.8 13.8-11.3 23.4-2.5 9.4-3.7 26.7-3.7 51.7v50.8H1342v-150zM1878.3 183.4h40.1c21.3 0 37.4 4.3 48.3 13 11.1 8.5 16.7 20.7 16.7 36.7 0 8.8-2.3 17.1-6.8 24.6-4.3 7.4-10.7 13.3-19.2 17.8 13.9 4.5 24.5 11.3 31.6 20.3 7.4 9 11 19.8 11 32.2 0 16.8-6.1 30.7-18.4 41.8-12.3 10.9-28.1 16.4-47.5 16.4h-55.9V183.4zm20 19.8v65h11.6c17.7 0 30.9-2.8 39.5-8.5 8.6-5.7 13-14.5 13-26.6 0-19.9-13.5-29.9-40.7-29.9h-23.4zm0 85.3v77.9h25.1c14.5 0 25.1-1.4 31.9-4.2 7-3 12.6-7.5 17-13.5 4.3-6.2 6.5-12.5 6.5-18.9s-1.2-12.1-3.7-17-6.1-9.2-11-13c-4.7-3.7-10.5-6.6-17.2-8.5-6.6-1.9-19-2.8-37.3-2.8h-11.3z"/></svg>