<svg xmlns="http://www.w3.org/2000/svg" viewBox="0 0 500 250"><path fill="red" d="m228.29 63.23-26 41.33q-.28.44-.8.44h-10.75a.46.45 16.2 0 1-.39-.7q14.66-22.77 29.26-45.75c5.9-9.29 11.37-10.73 17.68-.79q14.85 23.42 29.82 46.6a.42.42 0 0 1-.35.64h-10.49a1.52 1.52 0 0 1-1.28-.7l-5.33-8.2a.78.76 72.9 0 0-.64-.35h-27a.91.89-15 0 1-.78-.44L216 86.52a.2.2 0 0 1 .17-.31l26.08.06a.47.46-15.8 0 0 .4-.71l-13.82-22.33a.32.32 0 0 0-.54 0ZM466.14 57.45a5.81 5.81 0 0 1-5.81 5.81 5.81 5.81 0 0 1-5.81-5.81 5.81 5.81 0 0 1 5.81-5.81 5.81 5.81 0 0 1 5.81 5.81Zm-1.11-.06a4.7 4.7 0 0 0-4.7-4.7 4.7 4.7 0 0 0-4.7 4.7 4.7 4.7 0 0 0 4.7 4.7 4.7 4.7 0 0 0 4.7-4.7ZM52.77 104.05c-24.75-7.91-24.39-42.83.02-50.96q4.01-1.33 11.2-1.34 14.76-.01 29.51.03c37.14.11 36.49 54.4-.75 53.76q-16.5-.28-26.9-.29-9.37-.01-13.08-1.2Zm39.01-8.32c25.44-.09 24.53-34.12 1.72-34.21q-12.21-.05-24.4-.01-8.28.03-11.86 1.54c-13.7 5.79-12.91 26.48 1.13 31.57q3.08 1.12 10.91 1.13 11.24.02 22.5-.02Z"/><path fill="red" d="m167.64 88.34 19.29 16.29a.35.35 0 0 1-.23.62h-13.41q-.62 0-1.08-.41l-29.72-26.05a.16.16 0 0 1 .11-.28q13.51-.17 26.88-.3 4.26-.04 6.4-1.38c4.88-3.07 4.78-11.58-.41-14.4q-2.11-1.15-6.77-1.16-15.59-.06-31.19-.02-.51 0-.51.51v42.99a.5.5 0 0 1-.5.5h-9.38q-.62 0-.62-.63V52.09a.35.35 0 0 1 .35-.35q19.05.03 38.18-.01 8.66-.02 12.62 1.41c9.42 3.4 14.47 14.24 10.18 23.73q-5.32 11.76-19.92 10.81a.38.37-22.9 0 0-.27.66ZM259.41 76.4c.82-10.4 8.18-20.01 18.14-23.27q4.16-1.37 14.56-1.38 16.32-.03 32.73.01a.44.44 0 0 1 .37.68l-5.59 8.37q-.29.44-.82.44-11.94-.01-23.83-.01-8.9 0-12.29 1.32c-13.8 5.35-14.13 26.03-.31 31.54q3.44 1.38 11.57 1.38 15.7.01 31.39.03a.42.42 0 0 1 .36.65l-5.33 8.48q-.22.34-.62.34-16.02 0-31.99.26c-16.46.27-29.67-12.13-28.34-28.84ZM342.03 95.75h46.25q.82 0 .37.69l-5.54 8.39a.95.94-73.4 0 1-.79.43q-22.7-.02-45.3-.01c-4.41 0-6.03-2.79-6.03-7.01q.02-23.02.01-45.97a.52.52 0 0 1 .52-.52h8.98q.5 0 .5.5v42.47a1.03 1.03 0 0 0 1.03 1.03ZM398.25 73.75h48.52a.4.4 0 0 1 .34.62l-5.56 8.44a.97.95 15.9 0 1-.81.44h-42.73q-.58 0-.39.56c3.47 9.85 10.66 11.99 20.77 11.94q15.87-.07 31.73.03a.46.46 0 0 1 .38.7l-5.21 8.31q-.29.47-.84.47-11.9-.03-23.76 0-8.41.01-12.73-1.34c-24.05-7.57-25.1-42.3-.58-50.65q4.35-1.49 13.03-1.52 14.48-.07 28.96.03a.45.45 0 0 1 .37.69l-5.35 8.44a.72.72 0 0 1-.61.34q-12.16.01-24.26 0c-10.68 0-17.94 1.65-21.67 11.93q-.21.57.4.57ZM460.43 58.09q-.31-.26-.6.25a.97.95-38.1 0 0-.09.69q.23.95-.43 1.55a.44.44 0 0 1-.74-.3l-.36-5.34q-.03-.53.47-.71c2.35-.82 5.86.92 3.57 3.64a.59.59 0 0 0 .07.83q.85.72.62 1.82a.57.56-50.8 0 1-1.07.11l-.85-1.92q-.09-.2-.59-.62Zm1.12-2.32a1.17.81-10.8 0 0-1.302-.576 1.17.81-10.8 0 0-.997 1.015 1.17.81-10.8 0 0 1.3.577 1.17.81-10.8 0 0 .998-1.015Z"/><rect width="415.5" height="4" x="35.52" y="131.75" fill="#333" rx=".9"/><path fill="#333" d="M313.69 166.94c3.78-5.28 13.37-4.89 18.79-2.81a.63.62 17.6 0 1 .38.73l-1.23 4.91q-.13.53-.65.35c-3.08-1.06-8.33-2.43-10.93.16-3.53 3.52 3.97 5.99 6.49 7.07 5.96 2.54 10.19 7.38 6.65 14.06-3.97 7.51-15.02 7.31-21.78 4.49a.74.74 0 0 1-.43-.88l1.29-4.75a.44.43-71.4 0 1 .58-.29c2.81 1.09 13.09 4.18 13.42-1.74.18-3.36-4.99-4.77-7.48-5.9-6.62-2.98-10.05-8.49-5.1-15.4ZM127.02 163.63c11.36-1.81 27.97-1.42 29.43 13.35 1.89 19.06-14.6 22.83-29.4 20.41q-.55-.09-.55-.64v-32.51q0-.52.52-.61Zm7.26 5.84-.08 21.52a.73.73 0 0 0 .73.73l3.21.01a10.54 10.28-89.8 0 0 10.32-10.51v-1.9a10.54 10.28-89.8 0 0-10.24-10.57l-3.21-.01a.73.73 0 0 0-.73.73ZM168.97 188.99l-2.18 8.23a.38.38 0 0 1-.36.28h-7.27a.38.38 0 0 1-.36-.49l10.21-33.57a.38.38 0 0 1 .37-.27l9.65.12a.38.38 0 0 1 .36.26l10.47 33.46a.38.38 0 0 1-.37.49h-7.52a.38.38 0 0 1-.36-.27l-2.5-8.28a.38.38 0 0 0-.36-.27l-9.42.03a.38.38 0 0 0-.36.28Zm5-18.73-3.29 12.15a.47.47 0 0 0 .45.59h6.04q.68 0 .5-.65l-3.32-12.09a.2.2 0 0 0-.38 0ZM233 163.62l10.39 33.27a.47.47 0 0 1-.45.61h-7.33a.47.47 0 0 1-.45-.34l-2.42-8.11a.47.47 0 0 0-.45-.33l-9.27-.03a.47.47 0 0 0-.45.35l-2.21 8.11a.47.47 0 0 1-.45.35h-7.06a.47.47 0 0 1-.45-.61l10.16-33.37a.47.47 0 0 1 .45-.34l9.55.11a.47.47 0 0 1 .44.33Zm-5.78 6.68-3.24 12.18q-.14.52.39.52h6.14q.68 0 .5-.65l-3.38-12.05a.21.21 0 0 0-.41 0ZM267.44 179.15c2.53.68 4.37 2.63 5.25 5.13 4.91 14.05-16.54 14.04-23.81 12.99q-.88-.13-.88-1.02v-31.72a1.01 1.01 0 0 1 .87-1c5.33-.75 18.37-2.06 21.9 3.67q4.03 6.53-3.45 11.2-.8.5.12.75Zm-11.71-10.12.02 7.26a.58.58 0 0 0 .58.58l2.25-.01a5.91 4.06-.1 0 0 5.9-4.07v-.3a5.91 4.06-.1 0 0-5.92-4.05l-2.25.01a.58.58 0 0 0-.58.58Zm.07 13.66-.14 9.15a.27.27 0 0 0 .26.28l2.43.04a6.84 4.69.9 0 0 6.92-4.59v-.32a6.84 4.69.9 0 0-6.76-4.79l-2.43-.04a.27.27 0 0 0-.28.27ZM286.58 189.06l-2.2 8.09a.47.47 0 0 1-.45.35h-7.05a.47.47 0 0 1-.45-.61l10.16-33.37a.47.47 0 0 1 .45-.34l9.54.1a.47.47 0 0 1 .44.33l10.41 33.28a.47.47 0 0 1-.45.61h-7.31a.47.47 0 0 1-.45-.33l-2.45-8.09a.47.47 0 0 0-.45-.33l-9.29-.04a.47.47 0 0 0-.45.35Zm4.67-18.78-3.21 12.04q-.19.68.52.68h5.96q.68 0 .5-.66l-3.34-12.06a.22.22 0 0 0-.43 0ZM347.8 176.75h11.35a.55.55 0 0 1 .55.54l.14 5.15a.55.55 0 0 1-.55.56H347.8a.55.55 0 0 0-.55.55v6.9a.55.55 0 0 0 .55.55h13.15a.55.55 0 0 1 .55.55v5.4a.55.55 0 0 1-.55.55h-20.9a.55.55 0 0 1-.55-.55v-33.34a.55.55 0 0 1 .56-.55l20.15.2a.55.55 0 0 1 .55.56l-.02 5.13a.55.55 0 0 1-.55.55H347.8a.55.55 0 0 0-.55.55v6.15a.55.55 0 0 0 .55.55ZM187.76 169.25l-.02-5.14a.61.61 0 0 1 .61-.61h25.04a.61.61 0 0 1 .61.61v5.13a.61.61 0 0 1-.62.61l-8.01-.14a.61.61 0 0 0-.62.61v26.82a.61.61 0 0 1-.61.61h-6.53a.61.61 0 0 1-.61-.61v-26.83a.61.61 0 0 0-.62-.61l-8 .16a.61.61 0 0 1-.62-.61Z"/></svg>